<svg width="15" height="12" viewBox="0 0 15 12" fill="none" xmlns="http://www.w3.org/2000/svg">
<path d="M14.5303 6.53033C14.8232 6.23744 14.8232 5.76256 14.5303 5.46967L9.75736 0.696699C9.46447 0.403806 8.98959 0.403806 8.6967 0.696699C8.40381 0.989593 8.40381 1.46447 8.6967 1.75736L12.9393 6L8.6967 10.2426C8.40381 10.5355 8.40381 11.0104 8.6967 11.3033C8.98959 11.5962 9.46447 11.5962 9.75736 11.3033L14.5303 6.53033ZM13 6.75L14 6.75L14 5.25L13 5.25L13 6.75Z" fill="#0064FF"/>
<path d="M10.5303 6.53033C10.8232 6.23744 10.8232 5.76256 10.5303 5.46967L5.75736 0.696699C5.46447 0.403806 4.98959 0.403806 4.6967 0.696699C4.40381 0.989593 4.40381 1.46447 4.6967 1.75736L8.93934 6L4.6967 10.2426C4.40381 10.5355 4.40381 11.0104 4.6967 11.3033C4.98959 11.5962 5.46447 11.5962 5.75736 11.3033L10.5303 6.53033ZM-4.17272e-08 6.75L10 6.75L10 5.25L4.17272e-08 5.25L-4.17272e-08 6.75Z" fill="#0064FF"/>
</svg>
