<?xml version="1.0" encoding="UTF-8"?>
<!DOCTYPE svg PUBLIC "-//W3C//DTD SVG 1.1//EN" "http://www.w3.org/Graphics/SVG/1.1/DTD/svg11.dtd">
<!-- Creator: CorelDRAW 2017 -->
<svg xmlns="http://www.w3.org/2000/svg" xml:space="preserve" width="33px" height="61px" version="1.1" style="shape-rendering:geometricPrecision; text-rendering:geometricPrecision; image-rendering:optimizeQuality; fill-rule:evenodd; clip-rule:evenodd"
viewBox="0 0 2.8 5.11"
 xmlns:xlink="http://www.w3.org/1999/xlink">
 <defs>
  <style type="text/css">
   <![CDATA[
    .fil0 {fill:#939598}
   ]]>
  </style>
 </defs>
 <g id="Слой_x0020_1">
  <metadata id="CorelCorpID_0Corel-Layer"/>
  <g>
   <path class="fil0" d="M0.44 2.67l0.29 2.18c0,0.01 0,0.02 0,0.03 0,0.02 0.02,0.05 0.05,0.05l1.25 0c0.02,0 0.05,-0.03 0.05,-0.05 0,-0.01 0,-0.02 0,-0.03l0.29 -2.18 -1.93 0zm1.33 -1.43c0.01,0.05 -0.03,0.1 -0.08,0.1 -0.14,0.02 -0.31,-0.39 -0.17,-0.58 0.11,-0.15 0.16,-0.24 0.04,-0.4 -0.03,-0.04 -0.02,-0.1 0.02,-0.13 0.04,-0.03 0.1,-0.02 0.13,0.02 0.17,0.23 0.11,0.4 -0.04,0.62 -0.11,0.15 0.09,0.29 0.1,0.37zm-0.47 -0.21c0.01,0.05 -0.03,0.09 -0.08,0.1 -0.14,0.02 -0.31,-0.39 -0.17,-0.58 0.11,-0.15 0.16,-0.24 0.04,-0.4 -0.03,-0.04 -0.02,-0.1 0.02,-0.13 0.04,-0.03 0.1,-0.02 0.13,0.02 0.17,0.23 0.11,0.4 -0.04,0.61 -0.11,0.16 0.09,0.29 0.1,0.38zm-1.14 1.64l0.09 0 0 0 0 0 0.3 2.21c0,0.12 0.11,0.23 0.23,0.23l1.25 0c0.12,0 0.23,-0.11 0.23,-0.23l0.29 -2.21 0 0 0 0 0.09 0c0.09,0 0.16,-0.08 0.16,-0.16l0 -0.29c0,-0.09 -0.07,-0.16 -0.16,-0.16l-0.14 0 0 0c0,-0.26 -0.22,-0.48 -0.49,-0.48l-1.22 0c-0.27,0 -0.49,0.22 -0.49,0.48l0 0 -0.14 0c-0.09,0 -0.16,0.07 -0.16,0.16l0 0.29c0,0.08 0.07,0.16 0.16,0.16zm0.39 -0.61l1.7 0 0 0c0,-0.17 -0.14,-0.3 -0.31,-0.3l-1.08 0c-0.17,0 -0.31,0.13 -0.31,0.3l0 0zm-0.31 0.18l2.31 0c0.04,0 0.07,0.03 0.07,0.07l0 0.11c0,0.04 -0.03,0.07 -0.07,0.07l-2.31 0c-0.03,0 -0.06,-0.03 -0.06,-0.07l0 -0.11c0,-0.04 0.03,-0.07 0.06,-0.07zm1.14 0.64c0.14,0 0.29,0.04 0.42,0.13 0.14,0.1 0.25,0.27 0.28,0.45 0.03,0.13 0.01,0.27 -0.04,0.39 -0.06,0.16 -0.18,0.3 -0.33,0.38 -0.09,0.05 -0.2,0.08 -0.31,0.07 -0.09,0.01 -0.19,-0.02 -0.27,-0.05 -0.17,-0.07 -0.31,-0.22 -0.37,-0.4 -0.06,-0.13 -0.07,-0.28 -0.03,-0.42 0.03,-0.17 0.14,-0.33 0.28,-0.43 0.11,-0.07 0.24,-0.11 0.37,-0.12l0 0zm-0.14 0.17c-0.14,0.04 -0.27,0.15 -0.33,0.29 -0.06,0.1 -0.07,0.23 -0.06,0.34 0.01,0.02 0.01,0.03 0.02,0.04 0.05,-0.12 0.12,-0.25 0.22,-0.34 0.1,-0.08 0.23,-0.14 0.36,-0.15 -0.03,-0.03 -0.05,-0.06 -0.08,-0.09 0.09,0.02 0.19,0.05 0.28,0.08 -0.06,0.07 -0.13,0.14 -0.19,0.2 0,-0.04 0,-0.08 0,-0.12 -0.04,0 -0.09,0.03 -0.12,0.06 -0.08,0.07 -0.13,0.16 -0.16,0.26 -0.02,0.1 -0.04,0.21 -0.03,0.32 0.07,-0.01 0.14,-0.04 0.21,-0.07 0.07,-0.05 0.14,-0.12 0.17,-0.21 -0.04,0 -0.07,0.01 -0.1,0.02 0.05,-0.07 0.1,-0.14 0.16,-0.21 0.04,0.08 0.09,0.16 0.13,0.24 -0.04,-0.02 -0.07,-0.04 -0.11,-0.05 0.04,0.16 0.03,0.32 -0.03,0.47 0.16,-0.06 0.29,-0.2 0.34,-0.36 0.05,-0.15 0.04,-0.31 -0.03,-0.45 -0.06,-0.11 -0.17,-0.2 -0.29,-0.25 -0.11,-0.05 -0.24,-0.06 -0.36,-0.02l0 0z"/>
  </g>
 </g>
</svg>
